<?xml version="1.0" encoding="UTF-8"?>
<svg width="1290px" height="850px" viewBox="0 0 1290 850" version="1.1" xmlns="http://www.w3.org/2000/svg" xmlns:xlink="http://www.w3.org/1999/xlink">
    <!-- Generator: Sketch 52.3 (67297) - http://www.bohemiancoding.com/sketch -->
    <title>Window - Resize Me</title>
    <desc>Created with Sketch.</desc>
    <defs>
        <filter x="-10.4%" y="-16.4%" width="120.8%" height="132.8%" filterUnits="objectBoundingBox" id="filter-1">
            <feOffset dx="0" dy="20" in="SourceAlpha" result="shadowOffsetOuter1"></feOffset>
            <feGaussianBlur stdDeviation="22.5" in="shadowOffsetOuter1" result="shadowBlurOuter1"></feGaussianBlur>
            <feColorMatrix values="0 0 0 0 0   0 0 0 0 0   0 0 0 0 0  0 0 0 0.15 0" type="matrix" in="shadowBlurOuter1" result="shadowMatrixOuter1"></feColorMatrix>
            <feMerge>
                <feMergeNode in="shadowMatrixOuter1"></feMergeNode>
                <feMergeNode in="SourceGraphic"></feMergeNode>
            </feMerge>
        </filter>
        <linearGradient x1="50%" y1="0%" x2="50%" y2="100%" id="linearGradient-2">
            <stop stop-color="#E7E4E7" offset="0%"></stop>
            <stop stop-color="#C7C4C7" offset="100%"></stop>
        </linearGradient>
        <path d="M0,5.00691225 C0,2.24167097 2.23828139,0 4.99319969,0 L1195.0068,0 C1197.76447,0 1200,2.23520515 1200,5.00691225 L1200,38 L0,38 L0,5.00691225 Z" id="path-3"></path>
        <filter x="-0.0%" y="-1.3%" width="100.1%" height="102.6%" filterUnits="objectBoundingBox" id="filter-5">
            <feOffset dx="0" dy="1" in="SourceAlpha" result="shadowOffsetInner1"></feOffset>
            <feComposite in="shadowOffsetInner1" in2="SourceAlpha" operator="arithmetic" k2="-1" k3="1" result="shadowInnerInner1"></feComposite>
            <feColorMatrix values="0 0 0 0 1   0 0 0 0 1   0 0 0 0 1  0 0 0 0.25 0" type="matrix" in="shadowInnerInner1"></feColorMatrix>
        </filter>
        <linearGradient x1="50%" y1="0%" x2="50%" y2="100%" id="linearGradient-6">
            <stop stop-color="#C4C2C4" offset="0%"></stop>
            <stop stop-color="#B5B3B5" offset="100%"></stop>
        </linearGradient>
        <linearGradient x1="50%" y1="0%" x2="50%" y2="100%" id="linearGradient-7">
            <stop stop-color="#FEFEFE" offset="0%"></stop>
            <stop stop-color="#F1F1F1" offset="100%"></stop>
        </linearGradient>
        <rect id="path-8" x="0" y="0" width="37" height="22" rx="4"></rect>
        <filter x="-4.7%" y="-5.7%" width="109.5%" height="115.9%" filterUnits="objectBoundingBox" id="filter-9">
            <feOffset dx="0" dy="0.5" in="SourceAlpha" result="shadowOffsetOuter1"></feOffset>
            <feGaussianBlur stdDeviation="0.5" in="shadowOffsetOuter1" result="shadowBlurOuter1"></feGaussianBlur>
            <feColorMatrix values="0 0 0 0 0   0 0 0 0 0   0 0 0 0 0  0 0 0 0.15 0" type="matrix" in="shadowBlurOuter1"></feColorMatrix>
        </filter>
        <rect id="path-10" x="0" y="0" width="37" height="22" rx="4"></rect>
        <filter x="-4.7%" y="-5.7%" width="109.5%" height="115.9%" filterUnits="objectBoundingBox" id="filter-11">
            <feOffset dx="0" dy="0.5" in="SourceAlpha" result="shadowOffsetOuter1"></feOffset>
            <feGaussianBlur stdDeviation="0.5" in="shadowOffsetOuter1" result="shadowBlurOuter1"></feGaussianBlur>
            <feColorMatrix values="0 0 0 0 0   0 0 0 0 0   0 0 0 0 0  0 0 0 0.15 0" type="matrix" in="shadowBlurOuter1"></feColorMatrix>
        </filter>
        <rect id="path-12" x="-1.13686838e-13" y="0" width="457.70054" height="22" rx="4"></rect>
        <filter x="-0.4%" y="-5.7%" width="100.8%" height="115.9%" filterUnits="objectBoundingBox" id="filter-13">
            <feOffset dx="0" dy="0.5" in="SourceAlpha" result="shadowOffsetOuter1"></feOffset>
            <feGaussianBlur stdDeviation="0.5" in="shadowOffsetOuter1" result="shadowBlurOuter1"></feGaussianBlur>
            <feColorMatrix values="0 0 0 0 0   0 0 0 0 0   0 0 0 0 0  0 0 0 0.15 0" type="matrix" in="shadowBlurOuter1"></feColorMatrix>
        </filter>
        <rect id="path-14" x="0" y="0" width="37" height="22" rx="4"></rect>
        <filter x="-4.7%" y="-5.7%" width="109.5%" height="115.9%" filterUnits="objectBoundingBox" id="filter-15">
            <feOffset dx="0" dy="0.5" in="SourceAlpha" result="shadowOffsetOuter1"></feOffset>
            <feGaussianBlur stdDeviation="0.5" in="shadowOffsetOuter1" result="shadowBlurOuter1"></feGaussianBlur>
            <feColorMatrix values="0 0 0 0 0   0 0 0 0 0   0 0 0 0 0  0 0 0 0.15 0" type="matrix" in="shadowBlurOuter1"></feColorMatrix>
        </filter>
        <rect id="path-16" x="0.5" y="0" width="26" height="22" rx="4"></rect>
        <filter x="-6.7%" y="-5.7%" width="113.5%" height="115.9%" filterUnits="objectBoundingBox" id="filter-17">
            <feOffset dx="0" dy="0.5" in="SourceAlpha" result="shadowOffsetOuter1"></feOffset>
            <feGaussianBlur stdDeviation="0.5" in="shadowOffsetOuter1" result="shadowBlurOuter1"></feGaussianBlur>
            <feColorMatrix values="0 0 0 0 0   0 0 0 0 0   0 0 0 0 0  0 0 0 0.15 0" type="matrix" in="shadowBlurOuter1"></feColorMatrix>
        </filter>
        <rect id="path-18" x="0" y="0" width="26" height="22" rx="4"></rect>
        <filter x="-6.7%" y="-5.7%" width="113.5%" height="115.9%" filterUnits="objectBoundingBox" id="filter-19">
            <feOffset dx="0" dy="0.5" in="SourceAlpha" result="shadowOffsetOuter1"></feOffset>
            <feGaussianBlur stdDeviation="0.5" in="shadowOffsetOuter1" result="shadowBlurOuter1"></feGaussianBlur>
            <feColorMatrix values="0 0 0 0 0   0 0 0 0 0   0 0 0 0 0  0 0 0 0.15 0" type="matrix" in="shadowBlurOuter1"></feColorMatrix>
        </filter>
    </defs>
    <g id="Page-1" stroke="none" stroke-width="1" fill="none" fill-rule="evenodd">
        <g id="Safari-Template" transform="translate(-155.000000, -45.000000)">
            <g id="Window---Resize-Me" filter="url(#filter-1)" transform="translate(200.000000, 70.000000)">
                <path d="M0.25,37.25 L0.25,754.997038 C0.25,757.623772 2.37282056,759.75 4.99319969,759.75 L1195.0068,759.75 C1197.62451,759.75 1199.75,757.621163 1199.75,754.997038 L1199.75,37.25 L0.25,37.25 Z" id="Page" stroke="#B5B5B5" stroke-width="0.5" fill="#FFFFFF"></path>
                <g id="Top-bar">
                    <g>
                        <mask id="mask-4" fill="white">
                            <use xlink:href="#path-3"></use>
                        </mask>
                        <g id="BG" opacity="0.9">
                            <use fill="url(#linearGradient-2)" fill-rule="evenodd" xlink:href="#path-3"></use>
                            <use fill="black" fill-opacity="1" filter="url(#filter-5)" xlink:href="#path-3"></use>
                            <path stroke="#B4B4B4" stroke-width="0.5" d="M0.25,37.75 L1199.75,37.75 L1199.75,5.00691225 C1199.75,2.37540602 1197.62852,0.25 1195.0068,0.25 L4.99319969,0.25 C2.37553526,0.25 0.25,2.38056206 0.25,5.00691225 L0.25,37.75 Z" stroke-linejoin="square"></path>
                        </g>
                        <g id="Add" mask="url(#mask-4)">
                            <g transform="translate(1177.000000, 15.000000)">
                                <g>
                                    <rect id="BG" fill="#8F8C8F" x="0" y="0" width="23" height="23"></rect>
                                    <rect id="Add-button-BG" fill="url(#linearGradient-6)" x="0.958333333" y="0.958333333" width="22.0416667" height="22.0416667"></rect>
                                    <polygon id="+" fill="#696769" points="12.4583333 11.5 12.4583333 6.70833333 11.5 6.70833333 11.5 11.5 6.70833333 11.5 6.70833333 12.4583333 11.5 12.4583333 11.5 17.25 12.4583333 17.25 12.4583333 12.4583333 17.25 12.4583333 17.25 11.5"></polygon>
                                </g>
                            </g>
                        </g>
                        <g id="Tabs-button" mask="url(#mask-4)">
                            <g transform="translate(1132.000000, 8.000000)">
                                <g>
                                    <g id="Button-BG">
                                        <use fill="black" fill-opacity="1" filter="url(#filter-9)" xlink:href="#path-8"></use>
                                        <use fill="url(#linearGradient-7)" fill-rule="evenodd" xlink:href="#path-8"></use>
                                    </g>
                                    <path d="M13.5,9.50639765 L13.5,15.4936024 C13.5,15.7721598 13.7276288,16 14.0063976,16 L19.9936024,16 C20.2721598,16 20.5,15.7723712 20.5,15.4936024 L20.5,9.50639765 C20.5,9.22784023 20.2723712,9 19.9936024,9 L14.0063976,9 C13.7278402,9 13.5,9.22762881 13.5,9.50639765 Z M12.5,9.50639765 C12.5,8.6744372 13.1764628,8 14.0063976,8 L19.9936024,8 C20.8255628,8 21.5,8.67646277 21.5,9.50639765 L21.5,15.4936024 C21.5,16.3255628 20.8235372,17 19.9936024,17 L14.0063976,17 C13.1744372,17 12.5,16.3235372 12.5,15.4936024 L12.5,9.50639765 Z M22.5,14 L22.5,13 L22.9936024,13 C23.2721598,13 23.5,12.7723712 23.5,12.4936024 L23.5,6.50639765 C23.5,6.22784023 23.2723712,6 22.9936024,6 L17.0063976,6 C16.7278402,6 16.5,6.22762881 16.5,6.50639765 L16.5,7 L15.5,7 L15.5,6.50639765 C15.5,5.6744372 16.1764628,5 17.0063976,5 L22.9936024,5 C23.8255628,5 24.5,5.67646277 24.5,6.50639765 L24.5,12.4936024 C24.5,13.3255628 23.8235372,14 22.9936024,14 L22.5,14 Z" id="Tabs-icon" fill="#737373" fill-rule="nonzero"></path>
                                </g>
                            </g>
                        </g>
                        <g id="Share-button" mask="url(#mask-4)">
                            <g transform="translate(1087.000000, 8.000000)">
                                <g>
                                    <g id="Button-BG">
                                        <use fill="black" fill-opacity="1" filter="url(#filter-11)" xlink:href="#path-10"></use>
                                        <use fill="url(#linearGradient-7)" fill-rule="evenodd" xlink:href="#path-10"></use>
                                    </g>
                                    <path d="M17,8 L14.5064385,8 C13.6715406,8 13,8.67027497 13,9.49710104 L13,16.502899 C13,17.328344 13.6744555,18 14.5064385,18 L22.4935615,18 C23.3284594,18 24,17.329725 24,16.502899 L24,9.49710104 C24,8.67165598 23.3255445,8 22.4935615,8 L20,8 L20,9 L22.4935615,9 C22.7740255,9 23,9.22471689 23,9.49710104 L23,16.502899 C23,16.7773467 22.7762574,17 22.4935615,17 L14.5064385,17 C14.2259745,17 14,16.7752831 14,16.502899 L14,9.49710104 C14,9.22265332 14.2237426,9 14.5064385,9 L17,9 L17,8 Z M19,4.75742471 L19,13 L18,13 L18,4.75549252 L15.9051922,6.85030033 C15.7022229,7.05326962 15.3652316,7.04535655 15.1659132,6.84603813 C14.9605899,6.64071489 14.9623774,6.30603274 15.161651,6.10675912 L18.1187108,3.14969933 C18.2186033,3.04980681 18.3509583,3.00099365 18.4833873,3.00093805 C18.6271018,2.99290731 18.7726448,3.04298707 18.879357,3.14969933 L21.8364168,6.10675912 C22.0393861,6.3097284 22.0314731,6.64671971 21.8321546,6.84603813 C21.6268314,7.05136137 21.2921492,7.04957395 21.0928756,6.85030033 L19,4.75742471 Z" id="Share-icon" fill="#C1C1C1"></path>
                                </g>
                            </g>
                        </g>
                        <g id="Address-bar" mask="url(#mask-4)">
                            <g transform="translate(370.028818, 8.000000)">
                                <g transform="translate(0.285068, 0.000000)">
                                    <g id="Address-bar-BG">
                                        <use fill="black" fill-opacity="1" filter="url(#filter-13)" xlink:href="#path-12"></use>
                                        <use fill="url(#linearGradient-7)" fill-rule="evenodd" xlink:href="#path-12"></use>
                                    </g>
                                    <text id="Web-address" font-family="Helvetica" font-size="12" font-weight="normal" fill="#000000">
                                        <tspan x="185.156911" y="15">donorsearch.org</tspan>
                                    </text>
                                    <path d="M445.377403,6.02242151 C442.574153,6.2750359 440.377403,8.63097872 440.377403,11.5 C440.377403,14.5375661 442.839837,17 445.877403,17 C448.914969,17 451.377403,14.5375661 451.377403,11.5 L450.377403,11.5 C450.377403,13.9852814 448.362684,16 445.877403,16 C443.392121,16 441.377403,13.9852814 441.377403,11.5 C441.377403,9.18372317 443.127428,7.27618653 445.377403,7.02746439 L445.377403,9.5 L450.377403,6.5 L445.377403,3.5 L445.377403,6.02242151 L445.377403,6.02242151 Z" id="Refresh-icon" fill="#7D7C7D"></path>
                                </g>
                            </g>
                        </g>
                        <g id="Sidebar-button" mask="url(#mask-4)">
                            <g transform="translate(139.000000, 8.000000)">
                                <g>
                                    <g id="Button-BG">
                                        <use fill="black" fill-opacity="1" filter="url(#filter-15)" xlink:href="#path-14"></use>
                                        <use fill="url(#linearGradient-7)" fill-rule="evenodd" xlink:href="#path-14"></use>
                                    </g>
                                    <g id="Sidebar-Icon" transform="translate(11.000000, 5.000000)">
                                        <path d="M5,1 L1.49309635,1 C1.21860308,1 1,1.21942819 1,1.49554521 L1,10.5044548 C1,10.7729973 1.22559152,11 1.49309635,11 L5,11 L5,1 Z M6,1 L6,11 L13.5069036,11 C13.7813969,11 14,10.7805718 14,10.5044548 L14,1.49554521 C14,1.22700266 13.7744085,1 13.5069036,1 L6,1 Z M0,1.49554521 C0,0.669578397 0.663885847,0 1.49309635,0 L13.5069036,0 C14.331518,0 15,0.679554462 15,1.49554521 L15,10.5044548 C15,11.3304216 14.3361142,12 13.5069036,12 L1.49309635,12 C0.668482007,12 0,11.3204455 0,10.5044548 L0,1.49554521 Z" id="Combined-Shape" fill="#737373"></path>
                                        <path d="M3,2.5 L4,2.5 L3.5,2 L3.5,3 L4,2.5 L3,2.5 Z M3,2.5 L2,2.5 L2.5,3 L2.5,2 L2,2.5 L3,2.5 Z M3,4.5 L4,4.5 L3.5,4 L3.5,5 L4,4.5 L3,4.5 Z M3,4.5 L2,4.5 L2.5,5 L2.5,4 L2,4.5 L3,4.5 Z M3,6.5 L4,6.5 L3.5,6 L3.5,7 L4,6.5 L3,6.5 Z M3,6.5 L2,6.5 L2.5,7 L2.5,6 L2,6.5 L3,6.5 Z" id="Combined-Shape" stroke="#A9A9A9" fill="#D8D8D8"></path>
                                    </g>
                                </g>
                            </g>
                        </g>
                        <g id="Next-button" mask="url(#mask-4)">
                            <g transform="translate(105.000000, 8.000000)">
                                <g transform="translate(13.000000, 11.000000) scale(-1, 1) translate(-13.000000, -11.000000) translate(-0.500000, 0.000000)">
                                    <g id="Button-BG">
                                        <use fill="black" fill-opacity="1" filter="url(#filter-17)" xlink:href="#path-16"></use>
                                        <use fill="url(#linearGradient-7)" fill-rule="evenodd" xlink:href="#path-16"></use>
                                    </g>
                                    <path d="M11.1623982,10.9999331 L15.3917814,6.77054979 C15.6814937,6.48083755 15.6818334,6.01317209 15.3935957,5.72493435 C15.1033484,5.43468706 14.6372199,5.43750886 14.3479802,5.72674857 L9.6089561,10.4657727 C9.46706044,10.6076684 9.39458114,10.7922525 9.39142478,10.9775358 C9.38278728,11.177729 9.45562799,11.3807653 9.6089561,11.5340934 L14.3479802,16.2731175 C14.6376925,16.5628298 15.1053579,16.5631695 15.3935957,16.2749318 C15.683843,15.9846845 15.6810212,15.518556 15.3917814,15.2293163 L11.1623982,10.9999331 Z" id="&gt;" fill="#C6C6C6"></path>
                                </g>
                            </g>
                        </g>
                        <g id="Previous-button" mask="url(#mask-4)">
                            <g transform="translate(77.000000, 8.000000)">
                                <g>
                                    <g id="Button-BG">
                                        <use fill="black" fill-opacity="1" filter="url(#filter-19)" xlink:href="#path-18"></use>
                                        <use fill="url(#linearGradient-7)" fill-rule="evenodd" xlink:href="#path-18"></use>
                                    </g>
                                    <path d="M10.6620294,10.9999331 L14.8914127,6.77054979 C15.1811249,6.48083755 15.1814646,6.01317209 14.8932269,5.72493435 C14.6029796,5.43468706 14.1368512,5.43750886 13.8476115,5.72674857 L9.10858733,10.4657727 C8.96669167,10.6076684 8.89421237,10.7922525 8.89105601,10.9775358 C8.88241851,11.177729 8.95525922,11.3807653 9.10858733,11.5340934 L13.8476115,16.2731175 C14.1373237,16.5628298 14.6049892,16.5631695 14.8932269,16.2749318 C15.1834742,15.9846845 15.1806524,15.518556 14.8914127,15.2293163 L10.6620294,10.9999331 L10.6620294,10.9999331 Z" id="&lt;" fill="#737373"></path>
                                </g>
                            </g>
                        </g>
                        <g id="Traffic-lights" mask="url(#mask-4)">
                            <g transform="translate(13.000000, 13.000000)">
                                <g>
                                    <circle id="Red" stroke="#E23D38" stroke-width="0.5" fill="#FF5F57" cx="6" cy="6" r="5.75"></circle>
                                    <circle id="Amber" stroke="#E19C16" stroke-width="0.5" fill="#FFBD2E" cx="26" cy="6" r="5.75"></circle>
                                    <circle id="Green" stroke="#1AAB2B" stroke-width="0.5" fill="#29C941" cx="46" cy="6" r="5.75"></circle>
                                </g>
                            </g>
                        </g>
                        <rect id="Line" fill="#8F8C8F" mask="url(#mask-4)" x="0" y="37" width="1200" height="1"></rect>
                    </g>
                </g>
            </g>
        </g>
    </g>
</svg>